<svg width="16" height="16" viewBox="0 0 16 16" fill="none" xmlns="http://www.w3.org/2000/svg">
<path d="M2.86988 6.37397L4.42439 7.03164C4.6104 6.65962 4.80306 6.30089 5.00235 5.95544C5.20165 5.60999 5.42088 5.26455 5.66003 4.9191L4.54397 4.69987L2.86988 6.37397ZM5.69989 8.02813L7.97188 10.2802C8.52991 10.0676 9.1278 9.74208 9.76555 9.30363C10.4033 8.86518 11.0012 8.36693 11.5592 7.8089C12.4893 6.87885 13.2167 5.84583 13.7415 4.70984C14.2663 3.57384 14.4955 2.52754 14.4291 1.57091C13.4725 1.50448 12.4228 1.73367 11.2802 2.25848C10.1376 2.7833 9.10123 3.51073 8.17117 4.44079C7.61314 4.99882 7.1149 5.59671 6.67645 6.23446C6.23799 6.87221 5.91248 7.4701 5.69989 8.02813ZM9.24738 6.7327C8.94179 6.42711 8.78899 6.05177 8.78899 5.60667C8.78899 5.16158 8.94179 4.78623 9.24738 4.48064C9.55297 4.17506 9.93163 4.02226 10.3834 4.02226C10.8351 4.02226 11.2138 4.17506 11.5194 4.48064C11.825 4.78623 11.9777 5.16158 11.9777 5.60667C11.9777 6.05177 11.825 6.42711 11.5194 6.7327C11.2138 7.03829 10.8351 7.19108 10.3834 7.19108C9.93163 7.19108 9.55297 7.03829 9.24738 6.7327ZM9.62604 13.1301L11.3001 11.456L11.0809 10.34C10.7355 10.5791 10.39 10.795 10.0446 10.9877C9.69912 11.1803 9.34038 11.3697 8.96836 11.5557L9.62604 13.1301ZM15.864 0.116042C16.1165 1.7237 15.9604 3.28818 15.3957 4.80948C14.831 6.33078 13.8578 7.78233 12.476 9.16412L12.8746 11.1372C12.9277 11.4029 12.9144 11.662 12.8347 11.9144C12.755 12.1669 12.6221 12.3861 12.4361 12.5721L9.08794 15.9203L7.41385 11.9941L4.00587 8.58616L0.0797188 6.91207L3.40798 3.56388C3.59399 3.37787 3.81654 3.245 4.07562 3.16529C4.33471 3.08557 4.59712 3.07228 4.86284 3.12543L6.83588 3.52402C8.21768 2.14223 9.6659 1.16567 11.1806 0.594355C12.6952 0.023037 14.2564 -0.136401 15.864 0.116042ZM1.49473 11.1172C1.95975 10.6522 2.52775 10.4164 3.19872 10.4097C3.86968 10.4031 4.43768 10.6323 4.9027 11.0973C5.36773 11.5623 5.59692 12.1303 5.59028 12.8013C5.58364 13.4723 5.3478 14.0403 4.88277 14.5053C4.55061 14.8374 3.9959 15.1231 3.21865 15.3623C2.44139 15.6014 1.36851 15.814 0 16C0.18601 14.6315 0.398594 13.5586 0.63775 12.7814C0.876906 12.0041 1.16257 11.4494 1.49473 11.1172ZM2.63072 12.2333C2.49785 12.3662 2.36499 12.6086 2.23213 12.9607C2.09926 13.3128 2.00626 13.6682 1.95311 14.027C2.31184 13.9738 2.66726 13.8841 3.01935 13.7579C3.37144 13.6317 3.61392 13.5022 3.74678 13.3693C3.90622 13.2099 3.99258 13.0172 4.00587 12.7913C4.01915 12.5655 3.94608 12.3728 3.78664 12.2134C3.6272 12.0539 3.43455 11.9775 3.20868 11.9842C2.98281 11.9908 2.79016 12.0739 2.63072 12.2333Z" fill="#AEC6FF"/>
</svg>
